<?xml version="1.0" standalone="no"?>
<!DOCTYPE svg PUBLIC "-//W3C//DTD SVG 20010904//EN"
 "http://www.w3.org/TR/2001/REC-SVG-20010904/DTD/svg10.dtd">
<svg version="1.0" xmlns="http://www.w3.org/2000/svg"
 width="300.000000pt" height="200.000000pt" viewBox="0 0 300.000000 200.000000"
 preserveAspectRatio="xMidYMid meet">
<metadata>
Created by potrace 1.16, written by Peter Selinger 2001-2019
</metadata>
<g transform="translate(0.000000,200.000000) scale(0.100000,-0.100000)"
fill="#000000" stroke="none">
<path d="M205 1891 c-43 -26 -61 -50 -75 -96 -8 -29 -10 -259 -8 -836 l3 -795
25 -37 c14 -21 43 -46 66 -57 40 -20 64 -20 1305 -20 l1265 0 44 23 c33 16 51
34 68 67 l22 45 -2 811 -3 811 -28 36 c-55 72 53 67 -1369 67 -1232 0 -1284
-1 -1313 -19z m2581 -118 c9 -13 13 -55 14 -145 l0 -128 -1280 0 -1280 0 0
123 c0 95 4 128 16 145 l15 22 1251 0 c1180 0 1252 -1 1264 -17z m14 -1138 c0
-412 -1 -426 -20 -445 -20 -20 -33 -20 -1260 -20 -1227 0 -1240 0 -1260 20
-19 19 -20 33 -20 445 l0 425 1280 0 1280 0 0 -425z"/>
</g>
</svg>
