<?xml version="1.0" standalone="no"?>
<!DOCTYPE svg PUBLIC "-//W3C//DTD SVG 20010904//EN"
 "http://www.w3.org/TR/2001/REC-SVG-20010904/DTD/svg10.dtd">
<svg version="1.0" xmlns="http://www.w3.org/2000/svg"
 width="100.000000pt" height="100.000000pt" viewBox="0 0 100.000000 100.000000"
 preserveAspectRatio="xMidYMid meet">
<metadata>
Created by potrace 1.16, written by Peter Selinger 2001-2019
</metadata>
<g transform="translate(0.000000,100.000000) scale(0.100000,-0.100000)"
fill="#000000" stroke="none">
<path d="M329 977 c-153 -81 -185 -328 -58 -456 68 -69 171 -90 254 -52 56 25
122 102 140 164 40 135 -14 286 -124 344 -61 32 -151 32 -212 0z m171 -49 c39
-21 110 -92 99 -102 -2 -2 -37 1 -78 6 -80 9 -182 45 -189 66 -4 14 71 51 103
52 12 0 41 -10 65 -22z m-55 -143 c39 -8 94 -15 123 -15 l52 0 0 -47 c0 -64
-38 -143 -86 -179 -32 -25 -47 -29 -99 -29 -52 0 -67 4 -99 29 -56 42 -90 121
-84 194 3 32 10 69 16 84 l11 27 48 -24 c26 -14 80 -32 118 -40z"/>
<path d="M840 915 l0 -45 -46 0 c-44 0 -45 -1 -42 -27 3 -25 8 -28 45 -31 42
-3 42 -3 45 -45 3 -37 6 -42 28 -42 22 0 25 5 28 42 3 42 3 42 45 45 37 3 42
6 42 28 0 22 -5 25 -42 28 l-43 3 0 45 c0 42 -1 44 -30 44 -29 0 -30 -2 -30
-45z"/>
<path d="M310 414 c-141 -24 -237 -62 -283 -111 -27 -30 -28 -31 -25 -149 l3
-119 430 0 430 0 3 119 c3 118 2 119 -25 149 -35 36 -101 71 -179 92 -57 15
-300 29 -354 19z m-76 -103 c57 -63 233 -86 329 -43 26 12 61 31 78 43 34 24
52 20 134 -32 l45 -29 0 -80 0 -80 -385 0 -385 0 0 79 c0 78 1 80 31 102 41
29 100 58 120 59 9 0 24 -9 33 -19z"/>
</g>
</svg>
