<?xml version="1.0" standalone="no"?>
<!DOCTYPE svg PUBLIC "-//W3C//DTD SVG 20010904//EN"
 "http://www.w3.org/TR/2001/REC-SVG-20010904/DTD/svg10.dtd">
<svg version="1.0" xmlns="http://www.w3.org/2000/svg"
 width="100.000000pt" height="100.000000pt" viewBox="0 0 100.000000 100.000000"
 preserveAspectRatio="xMidYMid meet">
<metadata>
Created by potrace 1.16, written by Peter Selinger 2001-2019
</metadata>
<g transform="translate(0.000000,100.000000) scale(0.100000,-0.100000)"
fill="#000000" stroke="none">
<path d="M331 983 c-76 -38 -124 -109 -143 -212 -22 -119 51 -260 159 -306 45
-20 134 -15 181 9 113 59 172 224 126 358 -20 59 -77 126 -128 149 -53 24
-149 25 -195 2z m141 -43 c36 -11 118 -82 118 -104 0 -23 -179 7 -242 40 -38
20 -35 32 15 54 49 23 59 23 109 10z m-159 -110 c46 -27 179 -60 244 -60 48 0
53 -2 54 -22 6 -137 -74 -238 -188 -238 -81 0 -154 71 -175 170 -9 46 -8 64 6
113 9 31 18 57 21 57 2 0 19 -9 38 -20z"/>
<path d="M837 953 c-4 -3 -7 -23 -7 -44 0 -37 -1 -38 -42 -41 -38 -3 -43 -6
-43 -28 0 -22 5 -25 42 -28 42 -3 42 -3 45 -45 3 -37 6 -42 31 -45 26 -3 27
-2 27 42 l0 46 40 0 c27 0 42 5 48 18 16 30 3 42 -44 42 l-44 0 0 45 c0 40 -2
45 -23 45 -13 0 -27 -3 -30 -7z"/>
<path d="M275 410 c-85 -13 -195 -55 -238 -91 l-37 -30 0 -130 0 -129 423 0
c316 0 426 3 435 12 8 8 12 49 12 119 0 90 -3 110 -19 131 -24 30 -127 83
-201 104 -66 18 -291 27 -375 14z m-26 -114 c73 -49 167 -65 258 -42 38 9 88
30 112 47 51 36 66 34 137 -13 l49 -33 3 -82 3 -83 -381 0 -380 0 0 81 c0 53
4 85 13 94 16 16 108 64 123 65 7 0 35 -15 63 -34z"/>
</g>
</svg>
